# xmcd CD database file
#
# Track frame offsets:
#	150
#	25282
#	46892
#	66525
#
# Disc length: 1171 seconds
#
# Revision: 0
# Processed by: cddbd v1.5.1PL0 Copyright (c) Steve Scherf et al.
# Submitted via: CDex 1.51
#
DISCID=33049104
DTITLE=青山陽一 - STARLAB
DYEAR=2000
DGENRE=Pop
TTITLE0=STARLAB
TTITLE1=FRIDAY RIDER
TTITLE2=発覚(Live version)
TTITLE3=BLOODY APPLE SONG
EXTD=YEAR: 2000
EXTT0=
EXTT1=
EXTT2=
EXTT3=
PLAYORDER=
